<svg xmlns="http://www.w3.org/2000/svg" viewBox="0 0 72.9 72.9"><defs><style>.cls-1{fill:none;stroke:#fff;stroke-linecap:round;stroke-linejoin:round;stroke-width:3px;}.cls-2{fill:#fff;}</style></defs><g id="Layer_2" data-name="Layer 2"><g id="Layer_1-2" data-name="Layer 1"><path class="cls-1" d="M71.4,35.55A34.38,34.38,0,0,1,20.5,65.37l-19,6L7.69,53.13A33.73,33.73,0,0,1,2.77,35.55a34.32,34.32,0,0,1,68.63,0Z"/><path class="cls-2" d="M50.35,42.65c-.17-.28-.63-.45-1.32-.8s-4.08-2-4.71-2.22-1.09-.34-1.55.34S41,42.2,40.59,42.66s-.8.51-1.49.17a18.83,18.83,0,0,1-5.55-3.39,20.53,20.53,0,0,1-3.83-4.73c-.4-.69,0-1.06.3-1.4s.69-.8,1-1.2A4.75,4.75,0,0,0,31.75,31a1.29,1.29,0,0,0-.06-1.2c-.17-.34-1.55-3.7-2.13-5.07S28.42,23.56,28,23.56s-.86-.06-1.32-.06a2.51,2.51,0,0,0-1.83.86,7.62,7.62,0,0,0-2.41,5.7c0,3.37,2.46,6.61,2.81,7.07S30,44.71,37,47.45s7,1.82,8.27,1.71,4.08-1.65,4.65-3.25A5.57,5.57,0,0,0,50.35,42.65Z"/></g></g></svg>